<?xml version="1.0" encoding="UTF-8" standalone="no"?>
<svg
   xmlns:dc="http://purl.org/dc/elements/1.1/"
   xmlns:cc="http://creativecommons.org/ns#"
   xmlns:rdf="http://www.w3.org/1999/02/22-rdf-syntax-ns#"
   xmlns:svg="http://www.w3.org/2000/svg"
   xmlns="http://www.w3.org/2000/svg"
   xmlns:sodipodi="http://sodipodi.sourceforge.net/DTD/sodipodi-0.dtd"
   xmlns:inkscape="http://www.inkscape.org/namespaces/inkscape"
   version="1.1"
   width="150"
   height="260"
   id="svg157"
   viewBox="0 0 150 260"
   sodipodi:docname="logo.svg"
   inkscape:version="1.0.2 (e86c870879, 2021-01-15, custom)">
  <metadata
     id="metadata161">
    <rdf:RDF>
      <cc:Work
         rdf:about="">
        <dc:format>image/svg+xml</dc:format>
        <dc:type
           rdf:resource="http://purl.org/dc/dcmitype/StillImage" />
        <dc:title></dc:title>
      </cc:Work>
    </rdf:RDF>
  </metadata>
  <sodipodi:namedview
     pagecolor="#ffffff"
     bordercolor="#666666"
     borderopacity="1"
     objecttolerance="10"
     gridtolerance="10"
     guidetolerance="10"
     inkscape:pageopacity="0"
     inkscape:pageshadow="2"
     inkscape:window-width="2560"
     inkscape:window-height="1017"
     id="namedview159"
     showgrid="false"
     inkscape:zoom="0.81866825"
     inkscape:cx="305.06369"
     inkscape:cy="346.72864"
     inkscape:window-x="-8"
     inkscape:window-y="-8"
     inkscape:window-maximized="1"
     inkscape:current-layer="svg157" />
  <defs
     id="defs11">
    <linearGradient
       id="grad1">
      <stop
         offset="0.0000%"
         stop-color="#2770b7"
         stop-opacity="1.0000"
         id="stop2" />
      <stop
         offset="26.0000%"
         stop-color="#4882c3"
         stop-opacity="1.0000"
         id="stop4" />
      <stop
         offset="42.0000%"
         stop-color="#69acde"
         stop-opacity="1.0000"
         id="stop6" />
      <stop
         offset="100.0000%"
         stop-color="#aee0f4"
         stop-opacity="1.0000"
         id="stop8" />
    </linearGradient>
  </defs>
  <defs
     id="defs24">
    <linearGradient
       id="grad2">
      <stop
         offset="0.0000%"
         stop-color="#2770b7"
         stop-opacity="1.0000"
         id="stop15" />
      <stop
         offset="26.0000%"
         stop-color="#4882c3"
         stop-opacity="1.0000"
         id="stop17" />
      <stop
         offset="42.0000%"
         stop-color="#69acde"
         stop-opacity="1.0000"
         id="stop19" />
      <stop
         offset="100.0000%"
         stop-color="#aee0f4"
         stop-opacity="1.0000"
         id="stop21" />
    </linearGradient>
  </defs>
  <defs
     id="defs37">
    <linearGradient
       id="grad3">
      <stop
         offset="0.0000%"
         stop-color="#2770b7"
         stop-opacity="1.0000"
         id="stop28" />
      <stop
         offset="26.0000%"
         stop-color="#4882c3"
         stop-opacity="1.0000"
         id="stop30" />
      <stop
         offset="42.0000%"
         stop-color="#69acde"
         stop-opacity="1.0000"
         id="stop32" />
      <stop
         offset="100.0000%"
         stop-color="#aee0f4"
         stop-opacity="1.0000"
         id="stop34" />
    </linearGradient>
  </defs>
  <g
     id="g1042"
     transform="matrix(0.97478149,0,0,0.97478149,-340.04849,-51.981978)">
    <path
       d="m 472.8661,94.6089 c -1.9372,16.482 -5.7691,23.2571 -45.2701,63.2488 v 0 l -38.8591,39.3432 c -20.391,20.6439 -36.9609,42.912 -34.7899,67.4779 v 0 c 0.927,13.8952 5.681,21.6641 8.5391,23.925 v 0 c 1.586,0.9782 1.268,0.001 0.6319,-0.6429 v 0 c -11.7029,-27.1729 16.6459,-55.55 30.6609,-69.7411 v 0 l 40.4572,-41.277 c 11.1439,-10.97 38.8579,-36.123 38.8999,-58.0949 v 0 l 0.0501,-24.2359 c 0,-0.1072 -0.036,-0.1432 -0.0842,-0.1432 v 0 c -0.0938,0 -0.2358,0.1401 -0.2358,0.1401 z"
       style="fill:#ffffff"
       id="path13" />
    <path
       d="m 427.5089,199.2229 -35.9878,36.449 c -13.0671,13.214 -25.1722,27.085 -24.5871,49.7199 v 0 c 0.2939,13.8881 7.266,25.2111 17.433,27.8181 v 0 c 4.1321,0.98 3.8109,0.3351 2.8571,9e-4 v 0 c -14.292,-7.13 -13.284,-33.632 9.9768,-57.17 v 0 l 36.9502,-37.4159 c 11.1458,-11.289 38.857,-36.4439 38.9029,-58.409 v 0 l 0.0499,-24.2411 -0.322,-0.005 c -1.9389,16.4812 -5.7719,23.5843 -45.273,63.2532 z"
       style="fill:#ffffff"
       id="path26" />
    <path
       d="m 472.9489,53.568 c -1.9369,16.1558 -5.7728,23.2529 -45.2719,62.9198 v 0 l -34.721,35.4821 c -19.112,19.0258 -33.444,33.863 -39.8429,52.2709 v 0 c -4.1531,12.2711 -5.1242,21.3202 -3.564,33.6021 v 0 c 0.629,3.5601 2.211,8.7251 2.215,7.761 v 0 c 1.6299,-21.0061 7.6949,-33.5939 37.637,-63.9079 v 0 l 44.913,-45.8011 c 11.1489,-10.961 38.861,-36.438 38.9049,-58.0819 v 0 l 0.051,-24.245 c 9e-4,-0.161 -0.0791,-0.2412 -0.159,-0.2412 v 0 c -0.0799,0 -0.161,0.0802 -0.1621,0.2412 z"
       style="fill:#ffffff"
       id="path39" />
    <path
       d="m 466.2583,194.6696 -5.408,7.4432 c 10.8941,8.176 18.7671,20.56 21.132,34.4409 l 9.055,-1.434 c -2.6841,-16.162 -11.7791,-30.9952 -24.779,-40.4501 z"
       style="fill:#ffffff;fill-rule:evenodd"
       id="path41" />
    <path
       d="m 418.8051,309.2238 c 2.7531,0.3929 5.5492,0.6081 8.3742,0.6429 v -9.1539 c -2.3522,-0.0351 -4.6681,-0.218 -6.9401,-0.542 z"
       style="fill:#ffffff;fill-rule:evenodd"
       id="path43" />
    <path
       d="m 446.9875,307.027 -2.8378,-8.7341 c -2.2011,0.68 -4.4611,1.224 -6.77,1.624 l 1.4338,9.0549 c 2.7771,-0.4699 5.506,-1.1208 8.174,-1.9448 z"
       style="fill:#ffffff;fill-rule:evenodd"
       id="path45" />
    <path
       d="m 456.3135,303.3094 -4.1772,-8.199 c -2.0729,1.0222 -4.2179,1.9171 -6.4278,2.6739 l 2.8389,8.7381 c 2.658,-0.898 5.252,-1.9709 7.7661,-3.213 z"
       style="fill:#ffffff;fill-rule:evenodd"
       id="path47" />
    <path
       d="m 435.7597,300.1708 c -2.2722,0.324 -4.5881,0.5072 -6.94,0.542 v 9.1539 c 2.825,-0.0348 5.6208,-0.2497 8.3738,-0.6429 z"
       style="fill:#ffffff;fill-rule:evenodd"
       id="path49" />
    <path
       d="m 479.2636,284.1928 -7.4429,-5.4079 c -1.3961,1.8578 -2.9092,3.6218 -4.525,5.286 l 6.5019,6.5018 c 1.9729,-2.0231 3.7981,-4.153 5.466,-6.3799 z"
       style="fill:#ffffff;fill-rule:evenodd"
       id="path51" />
    <path
       d="m 484.6302,275.7087 -8.2012,-4.1788 c -1.0919,2.0568 -2.3089,4.0379 -3.644,5.9289 l 7.4452,5.4099 c 1.6299,-2.2969 3.098,-4.6879 4.4,-7.16 z"
       style="fill:#ffffff;fill-rule:evenodd"
       id="path53" />
    <path
       d="m 491.9328,246.7536 h -9.1551 c -0.034,2.3519 -0.218,4.6681 -0.5411,6.9401 l 9.0521,1.434 c 0.3941,-2.753 0.6089,-5.5479 0.6441,-8.3741 z"
       style="fill:#ffffff;fill-rule:evenodd"
       id="path55" />
    <path
       d="m 491.037,256.7483 -9.055,-1.434 c -0.3999,2.3088 -0.9439,4.5688 -1.6239,6.77 l 8.7341,2.838 c 0.8249,-2.6683 1.476,-5.3972 1.9448,-8.174 z"
       style="fill:#ffffff;fill-rule:evenodd"
       id="path57" />
    <path
       d="m 488.5876,266.4825 -8.7372,-2.8392 c -0.7569,2.209 -1.6529,4.354 -2.6739,6.427 l 8.198,4.178 c 1.243,-2.5149 2.3159,-5.108 3.2131,-7.7658 z"
       style="fill:#ffffff;fill-rule:evenodd"
       id="path59" />
    <path
       d="m 472.6382,291.7321 -6.5021,-6.5021 c -1.664,1.616 -3.428,3.1289 -5.2858,4.5249 l 5.408,7.443 c 2.2268,-1.6679 4.3568,-3.4929 6.3799,-5.4658 z"
       style="fill:#ffffff;fill-rule:evenodd"
       id="path61" />
    <path
       d="m 464.9336,298.1648 -5.4088,-7.445 c -1.8921,1.3352 -3.8721,2.5521 -5.9292,3.644 l 4.178,8.2012 c 2.4721,-1.3023 4.864,-2.77 7.16,-4.4002 z"
       style="fill:#ffffff;fill-rule:evenodd"
       id="path63" />
    <path
       d="m 491.289,236.7397 -9.053,1.434 c 0.324,2.272 0.5071,4.5882 0.542,6.9401 h 9.1551 c -0.036,-2.825 -0.2509,-5.6211 -0.6441,-8.3741 z"
       style="fill:#ffffff;fill-rule:evenodd"
       id="path65" />
    <path
       d="m 437.4843,310.8436 1.4329,9.045 c -3.5611,0.531 -7.2,0.811 -10.902,0.811 -15.8499,0 -31.1451,-5.1349 -43.2629,-13.799 1.6988,-2.3168 5.383,-7.4089 5.383,-7.4089 1.099,0.42 18.6219,15.3039 47.349,11.3519 z"
       style="fill:#ffffff;fill-rule:evenodd"
       id="path67" />
    <path
       d="m 450.325,317.2978 -2.8301,-8.7109 c -2.7499,0.851 -5.563,1.5219 -8.4249,2.0041 l 1.4329,9.0439 c 3.3381,-0.5581 6.6181,-1.3399 9.8221,-2.3371 z"
       style="fill:#ffffff;fill-rule:evenodd"
       id="path69" />
    <path
       d="m 461.2174,312.9341 -4.159,-8.1629 c -2.5911,1.2818 -5.2642,2.3868 -8.0042,3.3108 l 2.831,8.712 c 3.1972,-1.072 6.313,-2.3609 9.3322,-3.8599 z"
       style="fill:#ffffff;fill-rule:evenodd"
       id="path71" />
    <path
       d="m 471.2804,306.9006 -5.383,-7.4089 c -2.3658,1.6809 -4.83,3.1929 -7.3789,4.5348 l 4.159,8.161 c 2.973,-1.5588 5.8471,-3.3228 8.6029,-5.2869 z"
       style="fill:#ffffff;fill-rule:evenodd"
       id="path73" />
    <path
       d="m 501.6998,258.4372 -9.0428,-1.4321 c -0.483,2.8619 -1.154,5.6739 -2.0041,8.424 l 8.71,2.8299 c 0.997,-3.204 1.7791,-6.484 2.3369,-9.8218 z"
       style="fill:#ffffff;fill-rule:evenodd"
       id="path75" />
    <path
       d="m 480.2725,299.3664 -6.4752,-6.4752 c -2.0838,2.035 -4.2798,3.916 -6.575,5.6341 l 5.3841,7.4101 c 2.6791,-1.999 5.2379,-4.193 7.6661,-6.569 z"
       style="fill:#ffffff;fill-rule:evenodd"
       id="path77" />
    <path
       d="m 502.7265,246.7536 h -9.1542 c -0.0348,2.9121 -0.2568,5.7941 -0.663,8.631 l 9.0451,1.432 c 0.4779,-3.306 0.7361,-6.6671 0.7721,-10.063 z"
       style="fill:#ffffff;fill-rule:evenodd"
       id="path79" />
    <path
       d="m 501.9541,235.0505 -9.0451,1.4329 c 0.4062,2.8372 0.6282,5.7181 0.663,8.6301 h 9.154 c -0.036,-3.3959 -0.2929,-6.7558 -0.7719,-10.063 z"
       style="fill:#ffffff;fill-rule:evenodd"
       id="path81" />
    <path
       d="m 488.0011,290.541 -7.41,-5.3841 c -1.7192,2.2949 -3.6,4.4909 -5.6342,6.5749 l 6.4752,6.4752 c 2.376,-2.427 4.57,-4.987 6.569,-7.666 z"
       style="fill:#ffffff;fill-rule:evenodd"
       id="path83" />
    <path
       d="m 498.8598,269.82 -8.712,-2.831 c -0.9238,2.74 -2.0299,5.4131 -3.3109,8.0039 l 8.163,4.159 c 1.4981,-3.0189 2.787,-6.1358 3.8599,-9.3319 z"
       style="fill:#ffffff;fill-rule:evenodd"
       id="path85" />
    <path
       d="m 494.2532,280.6121 -8.1621,-4.1579 c -1.341,2.5478 -2.853,5.0119 -4.534,7.3777 l 7.4092,5.3833 c 1.9639,-2.7561 3.7279,-5.6302 5.2869,-8.6031 z"
       style="fill:#ffffff;fill-rule:evenodd"
       id="path87" />
    <path
       d="m 501.6998,233.4308 c -0.5578,-3.3381 -1.3399,-6.618 -2.3369,-9.822 l -8.71,2.8298 c 0.8501,2.7502 1.5211,5.5621 2.0041,8.424 z"
       style="fill:#ffffff;fill-rule:evenodd"
       id="path89" />
    <path
       d="m 486.8369,216.8751 c 1.281,2.5908 2.3868,5.2639 3.3109,8.003 l 8.712,-2.8301 c -1.0721,-3.1969 -2.3621,-6.313 -3.8599,-9.3319 z"
       style="fill:#ffffff;fill-rule:evenodd"
       id="path91" />
    <path
       d="m 459.8154,255.4095 8.714,2.831 c 2.0959,-6.4908 1.815,-13.1259 1.815,-13.1259 0,0 -0.1429,-6.6259 -1.815,-11.4879 l -8.714,2.8318 c 0,0 1.2929,4.121 1.364,8.6561 0,0 0.339,4.5851 -1.364,10.2949 z"
       style="fill:#ffffff;fill-rule:evenodd"
       id="path93" />
    <path
       d="m 421.9984,278.5816 c -1.1809,-0.2171 -2.3409,-0.4929 -3.475,-0.8311 l -2.831,8.7131 c 1.5869,0.483 3.2131,0.8771 4.8719,1.1719 z"
       style="fill:#ffffff;fill-rule:evenodd"
       id="path95" />
    <path
       d="m 416.9646,277.2425 c -1.129,-0.3991 -2.232,-0.8521 -3.3018,-1.366 l -4.1561,8.157 c 1.495,0.7291 3.0401,1.3711 4.627,1.9219 z"
       style="fill:#ffffff;fill-rule:evenodd"
       id="path97" />
    <path
       d="m 422.1843,287.8883 c 1.637,0.2259 3.3041,0.358 4.995,0.3912 v -9.1653 c -1.2039,-0.0289 -2.3919,-0.1219 -3.5609,-0.2769 z"
       style="fill:#ffffff;fill-rule:evenodd"
       id="path99" />
    <path
       d="m 412.2027,275.1304 c -1.05,-0.57 -2.0619,-1.2002 -3.039,-1.8759 l -5.383,7.4077 c 1.366,0.9553 2.7901,1.8321 4.2661,2.6241 z"
       style="fill:#ffffff;fill-rule:evenodd"
       id="path101" />
    <path
       d="m 440.3062,286.4639 -2.8309,-8.7143 c -1.1339,0.3391 -2.2941,0.6152 -3.475,0.8323 l 1.434,9.0538 c 1.6591,-0.295 3.2851,-0.6891 4.8719,-1.1718 z"
       style="fill:#ffffff;fill-rule:evenodd"
       id="path103" />
    <path
       d="m 446.492,284.0335 -4.1562,-8.157 c -1.0698,0.5142 -2.173,0.9672 -3.3018,1.366 l 2.831,8.7132 c 1.5868,-0.5511 3.132,-1.1931 4.627,-1.9222 z"
       style="fill:#ffffff;fill-rule:evenodd"
       id="path105" />
    <path
       d="m 432.3808,278.8373 c -1.169,0.1548 -2.3581,0.2477 -3.562,0.2769 v 9.165 c 1.6909,-0.032 3.3579,-0.165 4.9949,-0.3909 z"
       style="fill:#ffffff;fill-rule:evenodd"
       id="path107" />
    <path
       d="m 465.3517,265.8861 -8.1561,-4.1562 c -0.57,1.05 -1.1999,2.0619 -1.876,3.0402 l 7.4081,5.3818 c 0.955,-1.366 1.832,-2.7898 2.624,-4.2658 z"
       style="fill:#ffffff;fill-rule:evenodd"
       id="path109" />
    <path
       d="m 468.0211,259.8001 -8.7128,-2.8312 c -0.3992,1.129 -0.8521,2.232 -1.366,3.3012 l 8.1569,4.1559 c 0.728,-1.495 1.3709,-3.0391 1.9219,-4.6259 z"
       style="fill:#ffffff;fill-rule:evenodd"
       id="path111" />
    <path
       d="m 461.7622,271.4774 -7.4089,-5.383 c -0.7251,0.9459 -1.5021,1.8499 -2.3221,2.7119 l 6.476,6.4772 c 1.1582,-1.203 2.245,-2.4741 3.255,-3.8061 z"
       style="fill:#ffffff;fill-rule:evenodd"
       id="path113" />
    <path
       d="m 452.2174,280.662 -5.3821,-7.4078 c -0.978,0.6758 -1.99,1.3059 -3.0391,1.8759 l 4.1551,8.1559 c 1.476,-0.792 2.9001,-1.6691 4.2661,-2.624 z"
       style="fill:#ffffff;fill-rule:evenodd"
       id="path115" />
    <path
       d="m 457.3484,276.4423 -6.4769,-6.4769 c -0.862,0.8209 -1.766,1.5971 -2.711,2.323 l 5.3821,7.4089 c 1.332,-1.0108 2.6028,-2.0979 3.8058,-3.255 z"
       style="fill:#ffffff;fill-rule:evenodd"
       id="path117" />
    <path
       d="m 420.4498,289.5514 c -0.2599,-0.053 -0.411,-0.0819 -0.411,-0.0819 0.1412,0.0289 0.273,0.055 0.409,0.0811 0,8e-4 0.002,8e-4 0.002,8e-4 z"
       style="fill:#ffffff;fill-rule:evenodd"
       id="path119" />
    <path
       d="m 428.1649,291.0722 c 0.117,0.0229 0.1919,0.0391 0.2168,0.0431 -0.021,-0.004 -0.091,-0.017 -0.2168,-0.0431 z m -6.469,-1.2759 c -0.003,-10e-4 -0.005,-10e-4 -0.007,-10e-4 0.002,0 0.004,0 0.007,10e-4 z m -0.788,-0.1539 c -0.0661,-0.0142 -0.1381,-0.0281 -0.2041,-0.0411 0.0641,0.011 0.1329,0.0249 0.2041,0.0411 z m -23.417,-12.041 -6.4701,6.4698 c 15.3621,15.5591 36.159,15.0021 36.159,15.0021 19.4919,0.1981 31.381,-9.6801 31.381,-9.6801 l -5.3799,-7.4049 c 0,0 -10.5902,8.4189 -26.0011,7.8749 -9.627,-0.2421 -19.4561,-2.9358 -29.6889,-12.2618 z"
       style="fill:#ffffff;fill-rule:evenodd"
       id="path121" />
    <path
       d="m 467.5599,226.6971 c 0.7668,1.571 1.4429,3.1949 2.0208,4.864 l 8.7101,-2.8301 c -0.73,-2.1269 -1.592,-4.193 -2.575,-6.1901 z"
       style="fill:#ffffff;fill-rule:evenodd"
       id="path123" />
    <path
       d="m 454.5064,210.8446 c 1.4011,1.061 2.7371,2.204 4.0011,3.422 l 6.4701,-6.4701 c -1.603,-1.5559 -3.303,-3.0118 -5.0911,-4.3568 z"
       style="fill:#ffffff;fill-rule:evenodd"
       id="path125" />
    <path
       d="m 480.3626,236.8103 c -0.3861,-2.223 -0.9099,-4.4 -1.5639,-6.52 l -8.7091,2.8301 c 0.5079,1.6679 0.9221,3.3769 1.231,5.1219 z"
       style="fill:#ffffff;fill-rule:evenodd"
       id="path127" />
    <path
       d="m 459.6666,215.4257 c 1.218,1.264 2.3612,2.5999 3.4222,4.0011 l 7.405,-5.3802 c -1.3451,-1.7889 -2.8021,-3.4877 -4.3572,-5.0907 z"
       style="fill:#ffffff;fill-rule:evenodd"
       id="path129" />
    <path
       d="m 464.0537,220.7523 c 1.0049,1.4349 1.927,2.9319 2.759,4.485 l 8.1561,-4.1551 c -1.0522,-1.9811 -2.2252,-3.888 -3.5101,-5.7101 z"
       style="fill:#ffffff;fill-rule:evenodd"
       id="path131" />
    <path
       d="m 481.1384,246.7536 h -9.155 c -0.0318,1.7782 -0.1709,3.53 -0.4099,5.2521 l 9.0431,1.432 c 0.3109,-2.1892 0.487,-4.4189 0.5218,-6.6841 z"
       style="fill:#ffffff;fill-rule:evenodd"
       id="path133" />
    <path
       d="m 480.3626,255.0574 -9.042,-1.432 c -0.3089,1.745 -0.7231,3.454 -1.231,5.1222 l 8.7091,2.8298 c 0.654,-2.12 1.1778,-4.297 1.5639,-6.52 z"
       style="fill:#ffffff;fill-rule:evenodd"
       id="path135" />
    <path
       d="m 480.6169,238.4303 -9.0431,1.4317 c 0.2381,1.7221 0.3781,3.4742 0.4099,5.2521 h 9.155 c -0.0348,-2.2649 -0.2109,-4.4961 -0.5218,-6.6838 z"
       style="fill:#ffffff;fill-rule:evenodd"
       id="path137" />
    <path
       d="m 478.2902,263.1365 -8.7089,-2.8299 c -0.5791,1.6691 -1.254,3.2931 -2.0219,4.864 l 8.1558,4.1559 c 0.9831,-1.997 1.8451,-4.0629 2.575,-6.19 z"
       style="fill:#ffffff;fill-rule:evenodd"
       id="path139" />
    <path
       d="m 464.9776,284.0715 -6.4698,-6.4701 c -1.264,1.218 -2.6,2.3601 -4.0011,3.422 l 5.3801,7.4052 c 1.7878,-1.345 3.4878,-2.802 5.0908,-4.3571 z"
       style="fill:#ffffff;fill-rule:evenodd"
       id="path141" />
    <path
       d="m 474.9683,270.786 -8.1559,-4.1561 c -0.8311,1.5531 -1.7529,3.0512 -2.7589,4.485 l 7.4049,5.381 c 1.2861,-1.823 2.4579,-3.7299 3.5099,-5.7099 z"
       style="fill:#ffffff;fill-rule:evenodd"
       id="path143" />
    <path
       d="m 470.4941,277.8214 -7.405,-5.3799 c -1.0621,1.4009 -2.2042,2.7368 -3.422,4.0008 l 6.4698,6.4701 c 1.5551,-1.6041 3.0121,-3.303 4.3572,-5.091 z"
       style="fill:#ffffff;fill-rule:evenodd"
       id="path145" />
  </g>
</svg>
